<?xml version="1.0" encoding="UTF-8"?>
<svg width="267px" height="396px" viewBox="0 0 267 396" version="1.1" xmlns="http://www.w3.org/2000/svg" xmlns:xlink="http://www.w3.org/1999/xlink">
    <!-- Generator: Sketch 47.1 (45422) - http://www.bohemiancoding.com/sketch -->
    <title>jack-logologo-jack</title>
    <desc>Created with Sketch.</desc>
    <defs></defs>
    <g id="Page-1" stroke="none" stroke-width="1" fill="none" fill-rule="evenodd">
        <g id="Primary" transform="translate(-138.000000, -74.000000)" fill="#263238">
            <g id="Group" transform="translate(53.000000, 54.000000)">
                <path d="M351.886486,307.915297 L351.886486,364.904764 C351.909897,364.899435 351.933305,364.894107 351.956709,364.888779 C316.844351,396.630247 270.320178,415.956757 219.287464,415.956757 C168.009843,415.956757 121.28414,396.444305 86.1134933,364.430938 C86.1122817,350.201545 86.0566755,338.104062 85.9968609,326.899081 L116.962162,326.899081 L116.962162,322.224324 L85.9715321,322.224324 C85.9246888,313.653985 85.879579,305.521387 85.8600774,297.236919 L116.962162,297.236919 L116.962162,292.562162 L85.8519716,292.562162 C85.837953,279.640094 85.8957656,266.091642 86.1135135,249.740966 C138.883106,249.740966 138.650784,249.740966 200.907044,249.740966 C200.907044,280.609613 200.907044,340.566023 200.907044,364.904764 C208.417323,364.904764 220.973984,364.904764 238.577027,364.904764 L238.577027,20.8567568 C239.27092,20.7535726 239.960479,20.6523481 240.645704,20.553083 C283.216042,25.1236124 321.749396,43.2000537 351.886486,70.4178983 L351.886486,127.640541 L319.851351,127.640541 L319.851351,132.315297 L351.886486,132.315297 L351.886486,157.302703 L319.851351,157.302703 L319.851351,161.97746 L351.886486,161.97746 L351.886486,186.964865 L319.851351,186.964865 L319.851351,191.639622 L351.886486,191.639622 L351.886486,216.627027 L319.851351,216.627027 L319.851351,221.301784 L351.886486,221.301784 L351.886486,246.289189 L319.851351,246.289189 L319.851351,250.963946 L351.886486,250.963946 L351.886486,273.578378 L319.851351,273.578378 L319.851351,278.253135 L351.886486,278.253135 L351.886486,303.240541 L319.851351,303.240541 L319.851351,307.915297 L351.886486,307.915297 Z" id="logo-jack"></path>
            </g>
        </g>
    </g>
</svg>