<?xml version="1.0" encoding="UTF-8" standalone="no"?>
<!DOCTYPE svg PUBLIC "-//W3C//DTD SVG 1.1//EN" "http://www.w3.org/Graphics/SVG/1.1/DTD/svg11.dtd">
<svg width="100%" height="100%" viewBox="0 0 2363 2363" version="1.1" xmlns="http://www.w3.org/2000/svg" xmlns:xlink="http://www.w3.org/1999/xlink" xml:space="preserve" xmlns:serif="http://www.serif.com/" style="fill-rule:evenodd;clip-rule:evenodd;stroke-linecap:round;stroke-linejoin:round;stroke-miterlimit:1.5;">
    <g transform="matrix(1,0,0,1,-8001,0)">
        <g id="Solid---White" serif:id="Solid - White" transform="matrix(1,0,0,1,8001,0)">
            <rect x="0" y="0" width="2362.2" height="2362.2" style="fill:none;"/>
            <clipPath id="_clip1">
                <rect x="0" y="0" width="2362.2" height="2362.2"/>
            </clipPath>
            <g clip-path="url(#_clip1)">
                <g transform="matrix(1.6684,0,0,1.58029,-788.453,-746.427)">
                    <g transform="matrix(1,0,0,1,-4604.4,63.1234)">
                        <path d="M5857.71,1754.9C5925.96,1766.56 5974,1794.24 5974,1826.5C5974,1869.27 5889.54,1904 5785.5,1904C5681.46,1904 5597,1869.27 5597,1826.5C5597,1793.97 5645.15,1766.79 5714.31,1755.31" style="fill:none;stroke:white;stroke-width:16.67px;"/>
                    </g>
                    <g transform="matrix(1,0,0,1,-5373,2.27374e-13)">
                        <path d="M6554.1,1417.28L6317.93,1653.45L6081.76,1417.28L5845.58,1181.1L6081.76,944.929L6317.93,1181.1L6554.1,944.929L6790.28,1181.1L7026.45,944.929L7262.62,1181.1L7026.45,1417.28L6790.28,1653.45L6554.1,1417.28Z" style="fill:white;"/>
                    </g>
                    <g transform="matrix(2.12132,2.12132,-2.12132,2.12132,1766.59,-1920.27)">
                        <rect x="426" y="702" width="334" height="334" style="fill:none;stroke:white;stroke-width:5.27px;"/>
                    </g>
                </g>
            </g>
        </g>
    </g>
</svg>
